<?xml version="1.0" encoding="UTF-8" standalone="no"?>
<!-- Created with Inkscape (http://www.inkscape.org/) -->

<svg
   xmlns:dc="http://purl.org/dc/elements/1.1/"
   xmlns:cc="http://creativecommons.org/ns#"
   xmlns:rdf="http://www.w3.org/1999/02/22-rdf-syntax-ns#"
   xmlns:svg="http://www.w3.org/2000/svg"
   xmlns="http://www.w3.org/2000/svg"
   xmlns:xlink="http://www.w3.org/1999/xlink"
   xmlns:sodipodi="http://sodipodi.sourceforge.net/DTD/sodipodi-0.dtd"
   xmlns:inkscape="http://www.inkscape.org/namespaces/inkscape"
   width="223.67419"
   height="224.30586"
   id="svg2"
   version="1.1"
   inkscape:version="0.48.2 r9819"
   sodipodi:docname="sun.svg"
   inkscape:export-filename="/Users/jimyeh/Desktop/Sun.png"
   inkscape:export-xdpi="86.699997"
   inkscape:export-ydpi="86.699997">
  <sodipodi:namedview
     id="base"
     pagecolor="#a2f1fc"
     bordercolor="#666666"
     borderopacity="1.0"
     inkscape:pageopacity="0"
     inkscape:pageshadow="2"
     inkscape:zoom="0.58778251"
     inkscape:cx="189.67675"
     inkscape:cy="54.816525"
     inkscape:document-units="px"
     inkscape:current-layer="layer1"
     showgrid="true"
     inkscape:window-width="1074"
     inkscape:window-height="617"
     inkscape:window-x="0"
     inkscape:window-y="0"
     inkscape:window-maximized="0"
     fit-margin-top="0"
     fit-margin-left="0"
     fit-margin-right="0"
     fit-margin-bottom="0">
    <inkscape:grid
       type="xygrid"
       id="grid3874"
       empspacing="5"
       visible="true"
       enabled="true"
       snapvisiblegridlinesonly="true" />
  </sodipodi:namedview>
  <defs
     id="defs4">
    <linearGradient
       id="linearGradient3906">
      <stop
         id="stop3910"
         offset="0"
         style="stop-color:#000000;stop-opacity:0.84615386;" />
      <stop
         style="stop-color:#000000;stop-opacity:0.79487181;"
         offset="0.20037453"
         id="stop3916" />
      <stop
         id="stop3918"
         offset="0.3002497"
         style="stop-color:#787878;stop-opacity:0.89803922;" />
      <stop
         style="stop-color:#212121;stop-opacity:0.94901961;"
         offset="0.40012485"
         id="stop3920" />
      <stop
         id="stop3908"
         offset="1"
         style="stop-color:#000000;stop-opacity:1;" />
    </linearGradient>
    <linearGradient
       inkscape:collect="always"
       xlink:href="#linearGradient3906"
       id="linearGradient3943"
       gradientUnits="userSpaceOnUse"
       x1="159.875"
       y1="462.367"
       x2="360.125"
       y2="462.367" />
    <linearGradient
       inkscape:collect="always"
       xlink:href="#linearGradient3906"
       id="linearGradient3945"
       gradientUnits="userSpaceOnUse"
       gradientTransform="translate(200,0)"
       x1="159.875"
       y1="462.367"
       x2="360.125"
       y2="462.367" />
    <filter
       inkscape:collect="always"
       id="filter3977"
       x="-0.105"
       width="1.21"
       y="-0.14"
       height="1.28"
       color-interpolation-filters="sRGB">
      <feGaussianBlur
         inkscape:collect="always"
         stdDeviation="28"
         id="feGaussianBlur3979" />
    </filter>
    <linearGradient
       inkscape:collect="always"
       xlink:href="#linearGradient3906-9"
       id="linearGradient3943-1"
       gradientUnits="userSpaceOnUse"
       x1="159.875"
       y1="462.367"
       x2="360.125"
       y2="462.367" />
    <linearGradient
       id="linearGradient3906-9">
      <stop
         id="stop3910-8"
         offset="0"
         style="stop-color:#000000;stop-opacity:0.84615386;" />
      <stop
         style="stop-color:#000000;stop-opacity:0.79487181;"
         offset="0.20037453"
         id="stop3916-5" />
      <stop
         id="stop3918-5"
         offset="0.3002497"
         style="stop-color:#787878;stop-opacity:0.89803922;" />
      <stop
         style="stop-color:#212121;stop-opacity:0.94901961;"
         offset="0.40012485"
         id="stop3920-1" />
      <stop
         id="stop3908-1"
         offset="1"
         style="stop-color:#000000;stop-opacity:1;" />
    </linearGradient>
    <linearGradient
       inkscape:collect="always"
       xlink:href="#linearGradient3906-9"
       id="linearGradient3945-2"
       gradientUnits="userSpaceOnUse"
       gradientTransform="translate(200,0)"
       x1="159.875"
       y1="462.367"
       x2="360.125"
       y2="462.367" />
    <linearGradient
       id="linearGradient8654">
      <stop
         id="stop8656"
         offset="0"
         style="stop-color:#000000;stop-opacity:0.84615386;" />
      <stop
         style="stop-color:#000000;stop-opacity:0.79487181;"
         offset="0.20037453"
         id="stop8658" />
      <stop
         id="stop8660"
         offset="0.3002497"
         style="stop-color:#787878;stop-opacity:0.89803922;" />
      <stop
         style="stop-color:#212121;stop-opacity:0.94901961;"
         offset="0.40012485"
         id="stop8662" />
      <stop
         id="stop8664"
         offset="1"
         style="stop-color:#000000;stop-opacity:1;" />
    </linearGradient>
  </defs>
  <metadata
     id="metadata7">
    <rdf:RDF>
      <cc:Work
         rdf:about="">
        <dc:format>image/svg+xml</dc:format>
        <dc:type
           rdf:resource="http://purl.org/dc/dcmitype/StillImage" />
        <dc:title />
      </cc:Work>
    </rdf:RDF>
  </metadata>
  <g
     id="layer1"
     inkscape:groupmode="layer"
     inkscape:label="Layer 1"
     transform="translate(-82.37247,-631.22626)">
    <g
       id="g3936"
       transform="matrix(0.34703813,0,0,0.34703813,69.054658,572.08611)">
      <path
         inkscape:connector-curvature="0"
         id="path2985"
         d="m 330.8608,170.59409 c -0.64791,0.0557 -1.30021,0.10004 -1.94785,0.15966 8.6e-4,0.0105 -8.5e-4,0.0215 0,0.0319 1.52206,18.72238 -3.63288,36.15385 -17.97769,48.28111 -14.34482,12.12727 -25.17774,14.70724 -43.65098,11.30391 -18.47324,-3.40332 -32.25283,-16.0246 -39.69142,-33.27309 -0.594,0.26278 -1.19539,0.49984 -1.78819,0.76637 7.44734,17.24471 8.2871,35.46035 -1.37307,51.5701 -9.66017,16.10974 -18.94433,21.98879 -37.52004,24.77919 -18.57571,2.79041 -35.73494,-4.65914 -48.37691,-18.55246 -0.0102,-0.011 -0.0219,-0.0209 -0.0319,-0.0319 -0.47421,0.43898 -0.93363,0.89952 -1.40501,1.34114 12.64902,13.88689 19.31765,30.90181 15.3912,49.271 -3.92644,18.36919 -10.82078,27.17296 -27.52534,35.76379 -16.70456,8.59083 -35.282884,7.05645 -51.697828,-2.07558 -0.309602,0.57543 -0.619899,1.14701 -0.926027,1.72433 16.70601,8.58799 28.306845,23.19914 30.431155,41.86278 2.1243,18.66365 -1.30672,29.28932 -14.401315,42.75689 -13.094594,13.46757 -30.919763,17.35767 -49.494525,14.56097 -0.106606,0.6483 -0.21661,1.29855 -0.31932,1.94785 0.01058,0.002 0.02136,-0.002 0.03193,0 18.57618,2.78725 34.330813,12.86615 42.341768,29.85637 8.010955,16.99022 8.298343,27.96997 0.287388,44.96019 -8.010956,16.99022 -23.643846,26.45931 -42.118245,29.85638 0.107645,0.63715 0.239851,1.27974 0.351252,1.91591 0.01026,-0.002 0.02166,0.002 0.03193,0 18.472669,-3.40645 36.623455,1.02954 49.718049,14.49711 13.094598,13.46757 17.036528,23.93357 14.912228,42.59722 -2.12431,18.66365 -13.756118,32.61137 -30.175701,41.73506 0.312544,0.57498 0.610017,1.15127 0.926026,1.72433 0.01262,-0.007 0.0193,-0.0249 0.03193,-0.0319 16.414944,-9.13203 35.152925,-10.7622 51.857485,-2.17137 16.70456,8.59082 24.04595,17.07527 27.97239,35.44446 3.92645,18.36919 -2.51866,35.16059 -15.16768,49.04748 0.4779,0.43851 0.9562,0.87338 1.43694,1.30921 12.64197,-13.89332 28.69743,-21.84601 47.35509,-19.67008 18.65766,2.17593 29.36067,9.11649 39.02084,25.22624 9.66017,16.10975 8.98007,34.038 1.53273,51.28271 -0.009,0.0219 -0.0225,0.042 -0.0319,0.0639 0.59443,0.25986 1.19259,0.51023 1.78819,0.76636 0.009,-0.0218 0.0225,-0.0421 0.0319,-0.0639 7.43859,-17.2485 19.99868,-29.93585 38.35028,-33.94366 18.35159,-4.00782 30.87083,-0.88722 45.21564,11.24004 14.34482,12.12727 19.53169,29.23941 18.00962,47.96179 -8.5e-4,0.0105 8.6e-4,0.0215 0,0.0319 0.65264,0.0532 1.29497,0.11033 1.94785,0.15966 8.5e-4,-0.0106 -8.6e-4,-0.0214 0,-0.0319 1.51255,-18.72316 9.40086,-34.9218 25.51363,-44.577 16.11277,-9.6552 27.31827,-10.19417 44.99212,-3.83183 17.67385,6.36233 29.23221,21.13985 33.75207,39.37209 0.002,0.0102 -0.002,0.0217 0,0.0319 0.62536,-0.15889 1.25938,-0.31628 1.88399,-0.47898 -0.002,-0.0102 0.002,-0.022 0,-0.0319 -4.52913,-18.22994 -2.28266,-36.28151 9.8989,-50.58021 12.18157,-14.2987 22.37882,-18.48354 41.16029,-18.16928 18.78148,0.31426 34.45293,10.53066 44.64087,26.31193 0.008,0.0123 0.024,0.0196 0.0319,0.0319 0.53789,-0.35185 1.06119,-0.7309 1.5966,-1.08569 -10.19596,-15.7761 -13.95723,-33.54385 -7.0889,-51.02726 6.86834,-17.4834 15.20912,-24.80964 33.08151,-30.59081 17.87239,-5.78116 36.04282,-1.21592 50.7718,10.44175 0.004,-0.005 0.0279,0.005 0.0319,0 0.39588,-0.50926 0.78873,-1.02121 1.18148,-1.53273 -14.7349,-11.65019 -24.09182,-27.37953 -23.18259,-46.14167 0.90922,-18.76214 6.25955,-28.61824 21.36247,-39.78721 15.10293,-11.16897 33.67381,-12.65593 51.34658,-6.2906 0.21064,-0.61385 0.39971,-1.23678 0.60671,-1.85205 -17.87337,-5.77814 -31.69852,-18.32926 -36.81754,-36.40243 -5.11903,-18.07316 -3.46255,-28.98635 7.24855,-44.41734 10.7111,-15.43099 27.7115,-22.79753 46.49292,-22.4801 0,-1.1173 -0.0204,-2.23722 -0.0319,-3.35285 -0.0106,1.8e-4 -0.0213,-1.7e-4 -0.0319,0 -18.78142,0.31744 -36.00534,-7.0491 -46.71645,-22.48009 -10.7111,-15.43099 -12.91042,-26.28032 -7.79139,-44.35349 5.11902,-18.07316 18.88608,-29.95028 36.56208,-36.30662 -0.21115,-0.60667 -0.42393,-1.21488 -0.63864,-1.82013 -0.009,0.003 -0.0226,-0.003 -0.0319,0 -17.67276,6.36533 -36.40331,4.94224 -51.50624,-6.22673 -15.10292,-11.16897 -20.96415,-20.76961 -21.87338,-39.53175 -0.90923,-18.76214 8.19223,-34.2999 22.92714,-45.95008 -0.40424,-0.51535 -0.77404,-1.05168 -1.18148,-1.56467 -0.0119,0.009 -0.02,0.0226 -0.0319,0.0319 -14.72898,11.65768 -31.8903,16.88279 -49.94158,11.6871 -18.05128,-5.19569 -25.8316,-13.12005 -33.27309,-30.36729 -7.44149,-17.24724 -4.48014,-35.8898 5.71582,-51.6659 0.008,-0.0124 0.0239,-0.0196 0.0319,-0.0319 -0.54083,-0.35043 -1.08522,-0.70628 -1.62853,-1.05375 -0.008,0.0123 -0.024,0.0196 -0.0319,0.0319 -10.18794,15.78127 -24.69875,26.29923 -43.45939,27.23795 -18.76064,0.93873 -30.51145,-4.12603 -42.69302,-18.42473 -12.18156,-14.2987 -14.49189,-32.03095 -9.96277,-50.26089 0.002,-0.0102 -0.002,-0.0219 0,-0.0319 -0.63847,-0.15934 -1.27669,-0.29166 -1.91591,-0.44705 -0.002,0.0102 0.002,0.0219 0,0.0319 -4.51987,18.23224 -14.88908,32.91833 -32.34707,39.85107 -17.45799,6.93275 -28.60755,5.61674 -45.02405,-3.51251 -16.4165,-9.12925 -25.46995,-25.59839 -26.9825,-44.32155 -8.6e-4,-0.0106 8.6e-4,-0.0214 0,-0.0319 z"
         style="fill:#ff0000;fill-opacity:1;fill-rule:nonzero;stroke:#ffffff;stroke-width:0.20436449;stroke-miterlimit:4;stroke-opacity:1;stroke-dasharray:none" />
      <path
         inkscape:connector-curvature="0"
         d="m 575.17578,493.45411 c 0,77.35859 -41.27032,148.84086 -108.2648,187.52016 -66.9945,38.67929 -149.53513,38.67929 -216.52963,0 -66.99451,-38.6793 -108.26481,-110.16157 -108.26481,-187.52016 0,-77.35858 41.2703,-148.84086 108.26481,-187.52015 66.9945,-38.6793 149.53513,-38.6793 216.52963,0 66.99448,38.67929 108.26481,110.16157 108.26481,187.52015 0,0 0,0 0,0"
         id="path3871"
         style="fill:#ffff00;fill-opacity:0.88405798;fill-rule:nonzero;stroke:#ffffff;stroke-width:0.13655022;stroke-miterlimit:4;stroke-opacity:1;stroke-dasharray:none" />
      <path
         inkscape:connector-curvature="0"
         id="path3876"
         d="M 262.57812,512.36218 C 316.61373,510.99318 360,466.72771 360,412.36218 l -200,0 c 0,55.22847 44.77152,100 100,100 0.86295,0 1.72041,0.0217 2.57812,0 z"
         style="fill:url(#linearGradient3943-1);fill-opacity:1;fill-rule:nonzero;stroke:#ffffff;stroke-width:0.25;stroke-miterlimit:4;stroke-opacity:1;stroke-dasharray:none" />
      <path
         style="fill:url(#linearGradient3945-2);fill-opacity:1;fill-rule:nonzero;stroke:#ffffff;stroke-width:0.25;stroke-miterlimit:4;stroke-opacity:1;stroke-dasharray:none"
         d="M 462.57812,512.36218 C 516.61373,510.99318 560,466.72771 560,412.36218 l -200,0 c 0,55.22847 44.77152,100 100,100 0.86295,0 1.72041,0.0217 2.57812,0 z"
         id="path3922"
         inkscape:connector-curvature="0" />
      <path
         inkscape:connector-curvature="0"
         id="path3926"
         d="m 260,572.36218 c 0,33.13708 44.77153,60 100,60 55.22847,0 100,-26.86292 100,-60 l -200,0 z"
         style="fill:#ff0000;stroke:#c85800;stroke-width:10;stroke-miterlimit:4;stroke-opacity:1;stroke-dasharray:none" />
    </g>
  </g>
</svg>
